<svg fill="none" height="2500" viewBox="-.041 -.072 128.131 128.154" width="2500" xmlns="http://www.w3.org/2000/svg"><g fill="#ff6101"><path d="m55.65.08c-3.684.089-6.387.218-11.343.524-2.292.136-4.794.338-6.556.514-.442.048-1.367.137-2.05.201-2.873.282-7.137.82-8.93 1.126-.379.065-.934.154-1.247.202-.306.04-.853.136-1.207.201s-.95.178-1.327.241a92.834 92.834 0 0 0 -4.867.99c-.354.089-.99.241-1.408.338-.418.096-.796.185-.844.193-2.358.563-4.699 1.698-6.5 3.17-1.754 1.424-3.322 3.725-4.111 6.01-.128.354-.258.716-.297.804-.137.306-.733 2.88-1.16 4.989-.063.354-.176.876-.24 1.166-.065.29-.153.796-.21 1.126a11.9 11.9 0 0 1 -.152.885c-.121.46-.612 3.596-.926 5.873a177.666 177.666 0 0 0 -.683 5.431c-.089.796-.177 1.577-.193 1.73-.024.152-.097.933-.17 1.73-.064.796-.16 1.77-.209 2.172-.169 1.48-.587 7.925-.796 12.47-.16 3.37-.265 10.588-.209 14.522.057 4.908.177 9.293.29 10.821.04.62.12 1.924.168 2.897.049.973.113 2.22.154 2.775.185 2.784.33 4.61.401 5.19.041.354.137 1.295.202 2.083.064.788.16 1.73.201 2.092.048.362.137 1.142.2 1.738.202 1.906.355 3.153.484 3.983.064.442.177 1.198.24 1.689.234 1.769.507 3.491.805 5.069.065.353.169.949.242 1.327.137.804.45 2.406.676 3.419.772 3.549 1.11 4.61 2.019 6.356.249.482.57 1.046.715 1.247.137.201.338.491.443.644.459.683 1.77 2.019 2.494 2.534.12.088.354.257.506.378.162.128.314.225.355.225.032 0 .112.057.176.122.314.305 2.527 1.359 3.475 1.641.178.056.395.128.483.169.21.096 1.392.393 2.816.716.62.145 1.255.297 1.408.337.37.097 2.702.563 4.465.885 1.013.185 2.984.499 4.223.676.466.064 1.062.153 1.327.201.973.169 4.996.636 7.522.877.908.089 2.027.193 2.493.241.756.081 1.528.145 5.229.41.555.041 1.818.113 2.815.162.998.048 2.39.12 3.098.161 5.727.329 22.106.329 27.753 0 .708-.048 2.1-.113 3.097-.161 1.713-.08 2.341-.121 5.028-.322 3.442-.265 8.503-.757 10.217-.998.49-.072 1.335-.185 1.89-.258 2.051-.265 4.867-.691 6.475-.989 1.763-.322 4.095-.788 4.466-.885.152-.04.787-.192 1.407-.337 1.392-.315 2.599-.62 2.816-.716.267-.097.535-.191.804-.282.659-.217 2.848-1.255 3.033-1.433.056-.056.217-.176.354-.257.627-.394.916-.619 1.488-1.134.644-.588 1.537-1.553 1.754-1.883.072-.112.265-.386.426-.603.169-.225.305-.426.305-.459 0-.032.13-.258.282-.499.153-.241.338-.595.411-.789.08-.184.16-.385.193-.425.152-.201.716-1.803.957-2.712.378-1.408 1.086-4.73 1.343-6.3.065-.402.137-.779.161-.844.073-.177.516-2.937.917-5.752.089-.62.177-1.24.201-1.368.065-.37.354-2.84.483-4.143.064-.644.153-1.385.201-1.65.049-.266.137-1.134.201-1.931.065-.796.153-1.778.193-2.173.048-.401.121-1.318.169-2.05.048-.733.121-1.634.161-2.012.049-.378.137-1.77.201-3.097.073-1.328.154-2.962.202-3.62.361-5.85.361-21.2 0-27.234a402.86 402.86 0 0 1 -.161-2.977c-.049-.95-.121-2.205-.162-2.776-.048-.58-.152-2.004-.241-3.178a109.557 109.557 0 0 0 -.201-2.453 65.86 65.86 0 0 1 -.161-1.73c-.064-.772-.137-1.497-.161-1.61a45.923 45.923 0 0 1 -.201-1.649c-.208-1.923-.466-4.046-.523-4.296a49.747 49.747 0 0 1 -.201-1.417c-.394-3.008-1.125-7.2-1.754-10.056-.088-.402-.232-1.054-.321-1.448-.225-1.03-.491-2.068-.579-2.253a5.655 5.655 0 0 1 -.169-.483c-.177-.594-1.07-2.582-1.296-2.896-.032-.048-.289-.426-.563-.844-.571-.86-2.034-2.39-2.912-3.033-1.737-1.28-3.668-2.149-6.161-2.76-.43-.105-.859-.213-1.287-.322-.298-.088-.894-.217-2.173-.483-.362-.076-.724-.154-1.086-.233-1.552-.378-6.605-1.2-9.894-1.617a28.61 28.61 0 0 1 -1.448-.2c-.242-.05-1.409-.17-3.78-.404-.661-.064-1.57-.16-2.012-.2-.443-.049-1.24-.121-1.77-.17-.53-.04-1.4-.113-1.93-.152-1.803-.154-6.806-.443-9.574-.564-5.35-.233-15.228-.305-21.357-.152zm-35.442 54.365c.048.04.282.112.514.168.435.105 1.047.387 1.504.692.362.241 1.216 1.158 1.384 1.48.081.162.169.307.193.33.025.025.097.185.161.363.057.176.129.362.17.401.104.154.225 1.11.225 1.819 0 .692-.106 1.504-.242 1.802-.434.997-.644 1.327-1.19 1.907-.508.523-.716.684-1.408 1.022-.563.281-.966.426-1.287.458-.258.032-.483.088-.507.12-.056.098-1.802.098-1.802 0 0-.032-.201-.088-.46-.12a3.421 3.421 0 0 1 -.698-.161 8.3 8.3 0 0 0 -.531-.217 1.62 1.62 0 0 1 -.322-.145c-.024-.032-.145-.104-.282-.169-.466-.233-1.432-1.304-1.713-1.89-.153-.315-.297-.62-.338-.684-.273-.548-.321-3.042-.065-3.62a7.91 7.91 0 0 0 .234-.564 1.64 1.64 0 0 1 .145-.321c.024-.024.12-.186.209-.363.153-.298 1.11-1.328 1.246-1.328.033 0 .106-.056.162-.128.152-.17.933-.547 1.408-.668.225-.056.474-.137.563-.177.088-.04.305-.08.482-.104.474-.049 2.14.024 2.245.096zm87.651 5.607v4.062h-15.606v-5.438l.868-.137c1.923-.298 3.122-.499 3.194-.547.048-.032.442-.096.884-.152.443-.057.846-.13.885-.162.05-.031.427-.104.845-.16.419-.049.965-.146 1.208-.21.24-.056.747-.145 1.125-.192.379-.05.756-.121.845-.154.089-.04.49-.112.885-.169.402-.048.852-.12 1.005-.169.153-.04.733-.152 1.288-.241s1.279-.208 1.609-.265c.329-.065.683-.113.787-.121l.177-.008zm-66.609 3.587v4.82h8.045v7.16h-8.052l.032 7.458c.024 8.037.008 7.643.443 8.632.33.765 1.262 1.545 2.066 1.738.137.032.29.096.355.145.152.12 3.41.12 3.556-.008.063-.048.353-.113.659-.145l.54-.056v7.056l-.219.096c-.2.089-1.125.234-2.396.386-1.81.21-5.109.234-5.302.032-.048-.039-.176-.072-.297-.072-.314 0-1.617-.242-1.714-.314a2.048 2.048 0 0 0 -.49-.16 2.855 2.855 0 0 1 -.484-.161c-.04-.041-.224-.113-.401-.169-.178-.056-.338-.13-.362-.153s-.17-.113-.323-.202c-.667-.354-.868-.482-1.222-.78-.209-.17-.402-.313-.443-.313-.08-.009-.691-.677-1.174-1.288-.37-.475-.917-1.383-1.102-1.85a1.901 1.901 0 0 0 -.16-.322c-.033-.024-.114-.274-.194-.564a5.852 5.852 0 0 0 -.21-.683 5.31 5.31 0 0 1 -.2-.804c-.068-.337-.14-.672-.218-1.006-.056-.241-.096-3.074-.12-8.432l-.032-8.061h-4.658v-7.16h4.666v-8.111l.547-.056c.297-.032.579-.088.62-.12.047-.033.442-.105.884-.161s.845-.138.885-.169c.048-.032.555-.121 1.126-.193.58-.082 1.087-.17 1.126-.201.048-.033.314-.09.603-.113.378-.046.754-.107 1.127-.185.86-.177 2.365-.411 2.437-.37.032.016.056 2.204.056 4.859zm26.668 4.054c1.126.065 2.398.21 2.494.282.048.032.24.089.442.113.459.073 1.577.402 2.252.676.564.225 1.819.852 2.012 1.014.065.048.209.144.321.193.113.056.468.337.78.612.315.281.605.522.644.538.121.056 1.553 1.794 1.553 1.89 0 .024.073.154.161.274.17.242.885 1.634.885 1.722 0 .032.065.21.152.394.08.186.177.467.21.62.032.153.089.314.12.362.032.04.105.297.162.563.048.265.112.54.136.603.033.065.104.41.17.765.096.531.12 2.534.152 11.4l.032 10.765h-8.776l-.008-.95a32.22 32.22 0 0 0 -.065-1.657l-.048-.724-.233.322c-.37.491-1.585 1.649-2.067 1.97-1.055.693-1.336.861-1.626.958a2.71 2.71 0 0 0 -.522.209 3.653 3.653 0 0 1 -.66.201c-.242.057-.483.13-.523.161-.41.306-5.479.298-5.873-.007-.04-.033-.33-.104-.644-.161-.305-.056-.667-.145-.804-.21a37.077 37.077 0 0 0 -.756-.314c-.323-.14-.64-.296-.949-.466a13.254 13.254 0 0 0 -.652-.378c-.338-.186-.45-.29-1.367-1.207-.941-.941-1.062-1.07-1.062-1.158 0-.033-.105-.21-.225-.395a5.395 5.395 0 0 1 -.411-.74c-.096-.225-.225-.49-.282-.604-.063-.112-.152-.401-.208-.643-.057-.241-.128-.482-.16-.523-.09-.113-.243-1.255-.243-1.754 0-.232-.04-.466-.088-.514-.096-.097-.073-.419.177-2.358.048-.378.12-.724.153-.764.032-.048.104-.258.152-.475.105-.418.323-.965.548-1.376.072-.137.168-.321.217-.418.048-.105.113-.185.152-.185.033 0 .057-.048.057-.105 0-.088.885-1.239 1.038-1.343a.426.426 0 0 0 .113-.185c.032-.089.128-.169.216-.193s.161-.073.161-.105c0-.08 1.352-1.143 1.81-1.408.33-.201 1.07-.579 2.148-1.095.154-.08 1.657-.562 2.317-.747a9.06 9.06 0 0 1 1.046-.217c.33-.057.643-.122.684-.153.048-.032.53-.105 1.086-.153a35.217 35.217 0 0 0 1.528-.17c1.143-.168 5.156-.136 5.583.041.145.064.152.032.096-.652-.031-.394-.088-.732-.12-.756-.04-.024-.089-.177-.12-.338-.057-.298-.363-.949-.652-1.392-.186-.28-.966-1.086-1.055-1.086-.031 0-.168-.08-.305-.185-.354-.258-.925-.514-1.271-.58-.169-.031-.306-.088-.306-.12 0-.354-5.196-.41-6.757-.064-.201.04-.668.128-1.045.193-.38.064-.757.153-.845.193-.09.04-.378.113-.644.16a4.067 4.067 0 0 0 -.644.162c-.088.04-.41.129-.716.201-.305.072-.595.152-.643.193a2.385 2.385 0 0 1 -.49.169c-.217.056-.443.137-.483.17-.048.031-.266.103-.484.16-.224.048-.538.16-.698.24-.17.09-.323.154-.347.154s-.04-1.682-.04-3.733c0-2.905.024-3.75.105-3.814.056-.048.282-.128.498-.184.226-.048.443-.121.482-.154.05-.032.315-.128.605-.201.289-.08.562-.168.603-.2.048-.041.297-.106.555-.161.266-.056.54-.13.603-.17.073-.031.402-.12.732-.192.256-.05.511-.106.765-.17.087-.024.538-.096 1.004-.161.468-.064.958-.152 1.086-.193.468-.144 4.682-.41 5.632-.353l1.287.072zm-44.366 16.777v16.01h-9.41v-32.02h9.41zm71.114-6.035c0 9.526.04 11.369.233 11.626.04.04.089.2.121.354.113.603.636 1.48 1.23 2.076.314.322.668.603.78.635.121.025.21.073.21.105s.282.144.627.257c.516.162.789.193 1.593.193.564 0 1.054-.04 1.167-.088a3.56 3.56 0 0 1 .555-.193c.201-.056.563-.225.804-.387.451-.289 1.287-1.06 1.287-1.19 0-.04.113-.217.241-.386.137-.178.242-.354.242-.402 0-.05.073-.218.153-.379.088-.16.185-.434.217-.603.024-.177.08-.354.121-.394.201-.258.234-1.882.234-11.32v-9.88h9.411v32.021h-4.457c-3.482 0-4.481-.024-4.529-.105-.032-.048-.072-.812-.088-1.69-.016-.868-.057-1.584-.088-1.584-.032 0-.129.096-.225.217-.451.612-1.159 1.304-2.269 2.22-.161.129-.491.306-1.215.66-.329.161-.691.346-.804.403-.113.056-.418.145-.685.201-.264.056-.498.128-.522.161-.08.12-1.504.241-2.912.241-1.383 0-2.51-.096-2.84-.234a5.78 5.78 0 0 0 -.684-.209c-.289-.072-.555-.169-.603-.201a1.975 1.975 0 0 0 -.418-.169c-.193-.048-.346-.12-.346-.152 0-.033-.145-.105-.322-.161-.176-.056-.321-.13-.321-.162 0-.031-.09-.096-.193-.144-.692-.314-2.261-1.786-2.92-2.735-.403-.58-1.023-1.739-1.151-2.165a5.271 5.271 0 0 0 -.201-.547 4.848 4.848 0 0 1 -.202-.644 2.987 2.987 0 0 0 -.16-.538c-.04-.073-.113-.451-.161-.845-.048-.387-.137-.781-.185-.87-.073-.12-.105-2.992-.12-11.569l-.025-11.4h9.42z"/><path d="m66.872 86.247c-.393.04-.796.104-.885.144-.089.049-.377.12-.643.177a4.237 4.237 0 0 0 -.764.217c-1.208.523-1.795.87-2.196 1.288-.386.403-.773 1.15-.837 1.617-.017.16-.073.37-.12.458-.09.186-.057.757.088 1.504.16.813.804 1.803 1.375 2.101 1.014.523 1.207.603 1.77.692 1.013.152 2.944.064 3.363-.16.072-.042.37-.178.659-.307.29-.136.668-.354.845-.491s.378-.297.45-.354c.459-.345 1.304-1.745 1.416-2.324.024-.146.089-.315.137-.38.056-.071.096-.812.113-2.14l.032-2.027-.435-.048c-.588-.072-3.483-.048-4.368.033z"/></g></svg>