<svg viewBox="0 -0.5 1366 750.5" xmlns="http://www.w3.org/2000/svg" width="2500" height="1374"><g fill="#820ad1"><path d="M235.8 70.7C105.6 70.7 0 176.3 0 306.5v421.2h180.9V235.3c0-63.9 25.4-121.9 66.7-164.3-3.9-.2-7.8-.3-11.8-.3zM416.8-.5C350.5-.5 290.5 26.9 247.7 71c124.7 6.2 224 109.3 224 235.5v421.2h180.9V235.3C652.6 105.1 547-.5 416.8-.5zM1130.2 678.8c130.2 0 235.8-105.6 235.8-235.8V21.8h-180.9v492.4c0 63.9-25.4 121.9-66.7 164.3 3.9.2 7.8.3 11.8.3zM949.2 750c66.3 0 126.3-27.4 169.1-71.5-124.7-6.2-224-109.3-224-235.5V21.8H713.4v492.4C713.4 644.4 819 750 949.2 750z"/></g></svg>